M48
;Layer_Color=9474304
;FILE_FORMAT=4:3
METRIC,TZ
;TYPE=PLATED
T1F00S00C0.300
T2F00S00C0.400
T3F00S00C0.900
T4F00S00C1.000
;TYPE=NON_PLATED
T5F00S00C1.300
T6F00S00C3.175
%
T01
X99314Y67056
X89065Y78105
X74041Y74168
X71435Y72070
X68453Y69850
X68580Y66675
X70485Y63754
X73914Y67945
X65405Y72517
X66294Y74168
X63500Y83820
X62357Y85471
X65278Y96393
X70358Y94488
X76073Y92329
X75692Y91059
X72644Y102235
X68707Y107569
X65659Y108839
X71237Y110099
X77851Y109093
X77724Y107823
X82296Y108585
Y103251
X80792Y100419
X83439Y92329
X85344Y92075
Y93345
X84836Y89281
X84074Y88392
X82423Y88138
X81407Y87376
Y83312
X85344Y84836
X86995Y83566
X89662
X88900Y82677
X87884Y81407
X87954Y85922
Y87122
Y88322
X89154
X90354
Y87122
X89154
Y85922
X90354
X92710Y84836
X91440Y83566
X94361Y83312
X96520Y84582
X100330Y84328
X96647Y88900
X92960Y87372
X90805Y90805
X88265Y90932
X91547Y93325
X92964Y94488
X84609Y111633
X79591Y111468
X82804Y117883
X90297Y122009
X102235Y123825
X101346Y125476
T02
X85090Y95885
X89662
X89154Y111760
X84201Y121666
X97536Y127635
X104140Y131572
T03
X105410Y71120
X107950
Y73660
Y76200
Y78740
X105410
Y76200
Y73660
X59690
Y71120
X57150
Y73660
Y76200
X59690
Y78740
X57150
Y81280
X59690
Y83820
Y86360
Y88900
Y91440
Y93980
Y96520
Y99060
Y101600
Y104140
Y106680
Y109220
Y111760
Y114300
Y116840
X57150
Y114300
Y111760
Y109220
Y106680
Y104140
Y101600
Y99060
Y96520
Y93980
Y91440
Y88900
Y86360
Y83820
X105410
X107950
Y81280
X105410
Y86360
X107950
Y88900
Y91440
Y93980
Y96520
Y99060
Y101600
Y104140
Y106680
Y109220
Y111760
Y114300
Y116840
X105410
Y114300
Y111760
Y109220
Y106680
Y104140
Y101600
Y99060
Y96520
Y93980
Y91440
Y88900
Y119380
X107950
Y121920
Y124460
Y127000
X105410
Y124460
Y121920
X59690
Y119380
X57150
Y121920
Y124460
X59690
Y127000
X57150
T04
X80518Y62992
X80518Y69792
X97155
X97155Y62992
X92255Y64792
X75618
X97409Y131630
X97409Y138430
X102309Y136630
X62357Y137345
X62357Y144145
X67257Y142345
T05
X94705Y62992
Y68992
X78068
Y62992
X99859Y132430
Y138430
X64807Y138145
Y144145
T06
X103505Y66040
X61595
X58420Y132080
M30
