%FSLAX43Y43*%
%MOMM*%
G71*
G01*
G75*
G04 Layer_Physical_Order=2*
G04 Layer_Color=16711680*
%ADD10C,1.000*%
%ADD11R,1.000X0.900*%
%ADD12R,0.900X1.000*%
%ADD13R,1.300X1.400*%
G04:AMPARAMS|DCode=14|XSize=1mm|YSize=1.5mm|CornerRadius=0.25mm|HoleSize=0mm|Usage=FLASHONLY|Rotation=90.000|XOffset=0mm|YOffset=0mm|HoleType=Round|Shape=RoundedRectangle|*
%AMROUNDEDRECTD14*
21,1,1.000,1.000,0,0,90.0*
21,1,0.500,1.500,0,0,90.0*
1,1,0.500,0.500,0.250*
1,1,0.500,0.500,-0.250*
1,1,0.500,-0.500,-0.250*
1,1,0.500,-0.500,0.250*
%
%ADD14ROUNDEDRECTD14*%
%ADD15R,0.800X0.800*%
G04:AMPARAMS|DCode=16|XSize=1.45mm|YSize=1.25mm|CornerRadius=0.313mm|HoleSize=0mm|Usage=FLASHONLY|Rotation=90.000|XOffset=0mm|YOffset=0mm|HoleType=Round|Shape=RoundedRectangle|*
%AMROUNDEDRECTD16*
21,1,1.450,0.625,0,0,90.0*
21,1,0.825,1.250,0,0,90.0*
1,1,0.625,0.313,0.412*
1,1,0.625,0.313,-0.412*
1,1,0.625,-0.313,-0.412*
1,1,0.625,-0.313,0.412*
%
%ADD16ROUNDEDRECTD16*%
%ADD17R,1.500X0.600*%
%ADD18R,0.813X0.914*%
%ADD19R,0.650X0.400*%
%ADD20R,0.800X0.800*%
%ADD21R,1.400X1.300*%
%ADD22R,3.300X2.400*%
%ADD23R,0.950X2.400*%
%ADD24O,0.800X0.250*%
%ADD25O,0.250X0.800*%
%ADD26R,3.450X3.450*%
%ADD27R,1.700X1.250*%
%ADD28R,2.000X1.800*%
%ADD29C,0.254*%
%ADD30C,0.500*%
%ADD31C,0.889*%
%ADD32C,1.270*%
%ADD33C,0.635*%
%ADD34C,0.300*%
%ADD35C,0.381*%
%ADD36R,1.700X1.700*%
%ADD37C,1.700*%
%ADD38C,1.300*%
%ADD39C,1.420*%
%ADD40R,1.420X1.420*%
%ADD41C,3.175*%
%ADD42C,0.800*%
%ADD43C,0.900*%
G36*
X63627Y128778D02*
X70485Y123063D01*
X91016D01*
X91059Y123045D01*
Y110871D01*
X88011Y107696D01*
X87900Y91430D01*
X87806Y91391D01*
X87762Y91286D01*
X83693D01*
X83443Y91182D01*
X82657Y90397D01*
X75987D01*
X75962Y90521D01*
X76151Y90600D01*
X76341Y91059D01*
X76151Y91518D01*
X75692Y91708D01*
X75587Y91665D01*
X70354Y96897D01*
X70104Y97001D01*
X65792D01*
X65585Y96915D01*
X65278Y97042D01*
X64819Y96852D01*
X64629Y96393D01*
X64819Y95934D01*
X65278Y95744D01*
X65737Y95934D01*
X65849Y96203D01*
X65939Y96293D01*
X69957D01*
X75086Y91164D01*
X75043Y91059D01*
X75233Y90600D01*
X75422Y90521D01*
X75397Y90397D01*
X74823D01*
X70927Y94293D01*
X71007Y94488D01*
X70817Y94947D01*
X70358Y95137D01*
X69899Y94947D01*
X69709Y94488D01*
X69899Y94029D01*
X70358Y93839D01*
X70373Y93845D01*
X74426Y89793D01*
X74676Y89689D01*
X82804D01*
X83054Y89793D01*
X83054Y89793D01*
X83054Y89793D01*
X83840Y90578D01*
X87762D01*
X87806Y90473D01*
X87894Y90436D01*
X87884Y89027D01*
X90762D01*
X90792Y89014D01*
X90805Y88984D01*
Y85133D01*
X90792Y85103D01*
X90762Y85090D01*
X87630D01*
Y83926D01*
X87505Y83902D01*
X87454Y84025D01*
X86995Y84215D01*
X86890Y84172D01*
X86737Y84324D01*
X86487Y84428D01*
X85939D01*
X85868Y84534D01*
X85993Y84836D01*
X85803Y85295D01*
X85344Y85485D01*
X84885Y85295D01*
X84841Y85190D01*
X63139D01*
X62963Y85366D01*
X63006Y85471D01*
X62816Y85930D01*
X62357Y86120D01*
X61898Y85930D01*
X61708Y85471D01*
X61898Y85012D01*
X62357Y84822D01*
X62462Y84865D01*
X62742Y84586D01*
X62992Y84482D01*
X63205D01*
X63230Y84357D01*
X63041Y84279D01*
X62851Y83820D01*
X63041Y83361D01*
X63500Y83171D01*
X63959Y83361D01*
X64108Y83720D01*
X86295D01*
X86366Y83614D01*
X86346Y83566D01*
X86536Y83107D01*
X86995Y82917D01*
X87454Y83107D01*
X87505Y83230D01*
X87630Y83206D01*
Y81951D01*
X87425Y81866D01*
X87235Y81407D01*
X87425Y80948D01*
X87630Y80863D01*
Y80645D01*
X82550Y76962D01*
X74676Y71755D01*
Y67999D01*
X74551Y67974D01*
D01*
X74551Y67974D01*
X74373Y68404D01*
X73914Y68594D01*
X73698Y68505D01*
X67415D01*
X65965Y69955D01*
Y72301D01*
X66054Y72517D01*
X65864Y72976D01*
X65405Y73166D01*
X64946Y72976D01*
X64756Y72517D01*
X64845Y72301D01*
Y69723D01*
X65009Y69327D01*
X66787Y67549D01*
X67183Y67385D01*
X68400D01*
X68425Y67260D01*
X68121Y67134D01*
X67931Y66675D01*
X68121Y66216D01*
X68226Y66172D01*
Y65659D01*
X68330Y65409D01*
X69879Y63859D01*
X69836Y63754D01*
X70026Y63295D01*
X70485Y63105D01*
X70944Y63295D01*
X71134Y63754D01*
X70944Y64213D01*
X70485Y64403D01*
X70380Y64360D01*
X68934Y65806D01*
Y66172D01*
X69039Y66216D01*
X69229Y66675D01*
X69039Y67134D01*
X68735Y67260D01*
X68760Y67385D01*
X73698D01*
X73914Y67296D01*
X74373Y67486D01*
X74551Y67916D01*
X74676Y67891D01*
Y65262D01*
X74481Y64792D01*
X74676Y64322D01*
Y60706D01*
X67606D01*
X64700Y61089D01*
X61736Y62316D01*
X59190Y64270D01*
X57236Y66816D01*
X56009Y69780D01*
X55590Y72962D01*
X55598Y73023D01*
X55527Y73023D01*
X55526Y73025D01*
Y128814D01*
X55617Y128903D01*
X63627Y128778D01*
D02*
G37*
G36*
X75919Y126492D02*
X76038Y126203D01*
X76073Y126189D01*
Y126095D01*
X76300D01*
X76327Y126084D01*
X93853D01*
X93880Y126095D01*
X94107D01*
Y126189D01*
X94142Y126203D01*
X94261Y126492D01*
Y140689D01*
X105791D01*
Y130175D01*
X103886Y128270D01*
X104013Y69723D01*
X101092Y67945D01*
X100838Y66421D01*
X100965Y65278D01*
Y61976D01*
X101092Y61595D01*
X102477Y62002D01*
X102531Y61887D01*
X101992Y61527D01*
X97791Y60691D01*
X75057Y60706D01*
Y63774D01*
X75163Y63844D01*
X75618Y63655D01*
X76422Y63988D01*
X76608Y64438D01*
X77746D01*
X77996Y64542D01*
X80768Y67314D01*
X80872Y67564D01*
Y68802D01*
X81322Y68988D01*
X81655Y69792D01*
X81322Y70596D01*
X80518Y70929D01*
X79714Y70596D01*
X79381Y69792D01*
X79714Y68988D01*
X80164Y68802D01*
Y67711D01*
X77599Y65146D01*
X76608D01*
X76422Y65596D01*
X75618Y65929D01*
X75163Y65740D01*
X75057Y65810D01*
Y71120D01*
X88519Y80518D01*
Y81053D01*
X100838D01*
X101088Y81157D01*
X102993Y83062D01*
X103097Y83312D01*
Y123317D01*
X102993Y123567D01*
X102841Y123720D01*
X102884Y123825D01*
X102694Y124284D01*
X102235Y124474D01*
X101806Y124297D01*
X101700Y124367D01*
Y124973D01*
X101805Y125017D01*
X101995Y125476D01*
X101805Y125935D01*
X101346Y126125D01*
X100887Y125935D01*
X100697Y125476D01*
X100887Y125017D01*
X100992Y124973D01*
Y84623D01*
X100868Y84598D01*
X100789Y84787D01*
X100330Y84977D01*
X99871Y84787D01*
X99681Y84328D01*
X99714Y84248D01*
X99157Y83691D01*
X94854D01*
X94820Y83771D01*
X94361Y83961D01*
X93902Y83771D01*
X93712Y83312D01*
X93845Y82991D01*
X93774Y82885D01*
X91689D01*
X91664Y83009D01*
X91899Y83107D01*
X92089Y83566D01*
X91899Y84025D01*
X91440Y84215D01*
X90981Y84025D01*
X90937Y83920D01*
X90165D01*
X90121Y84025D01*
X89662Y84215D01*
X89203Y84025D01*
X89013Y83566D01*
X89092Y83374D01*
X89002Y83284D01*
X88900Y83326D01*
X88625Y83212D01*
X88519Y83283D01*
Y84874D01*
X90805D01*
X90958Y84937D01*
X91021Y85090D01*
Y89027D01*
X90958Y89180D01*
X90805Y89243D01*
X88519D01*
Y90388D01*
X88724Y90473D01*
X88914Y90932D01*
X88724Y91391D01*
X88519Y91476D01*
Y106934D01*
X91313Y109982D01*
Y123190D01*
X91223D01*
X91212Y123216D01*
X91059Y123279D01*
X71526D01*
X66548Y127635D01*
X62484Y131572D01*
Y133477D01*
X55731Y140939D01*
X56080Y142694D01*
X57344Y144586D01*
X59236Y145850D01*
X61468Y146294D01*
X61584Y146271D01*
X61587Y146399D01*
X61595Y146404D01*
X75919D01*
Y126492D01*
D02*
G37*
%LPC*%
G36*
X59690Y84805D02*
X58994Y84516D01*
X58705Y83820D01*
X58994Y83124D01*
X59690Y82835D01*
X60386Y83124D01*
X60675Y83820D01*
X60386Y84516D01*
X59690Y84805D01*
D02*
G37*
G36*
X57150Y87345D02*
X56454Y87056D01*
X56165Y86360D01*
X56454Y85664D01*
X57150Y85375D01*
X57846Y85664D01*
X58135Y86360D01*
X57846Y87056D01*
X57150Y87345D01*
D02*
G37*
G36*
Y82265D02*
X56454Y81976D01*
X56165Y81280D01*
X56454Y80584D01*
X57150Y80295D01*
X57846Y80584D01*
X58135Y81280D01*
X57846Y81976D01*
X57150Y82265D01*
D02*
G37*
G36*
X59690D02*
X58994Y81976D01*
X58705Y81280D01*
X58994Y80584D01*
X59690Y80295D01*
X60386Y80584D01*
X60675Y81280D01*
X60386Y81976D01*
X59690Y82265D01*
D02*
G37*
G36*
X57150Y84805D02*
X56454Y84516D01*
X56165Y83820D01*
X56454Y83124D01*
X57150Y82835D01*
X57846Y83124D01*
X58135Y83820D01*
X57846Y84516D01*
X57150Y84805D01*
D02*
G37*
G36*
X83439Y92978D02*
X82980Y92788D01*
X82790Y92329D01*
X82980Y91870D01*
X83439Y91680D01*
X83898Y91870D01*
X84088Y92329D01*
X83898Y92788D01*
X83439Y92978D01*
D02*
G37*
G36*
X59690Y100045D02*
X58994Y99756D01*
X58705Y99060D01*
X58994Y98364D01*
X59690Y98075D01*
X60386Y98364D01*
X60675Y99060D01*
X60386Y99756D01*
X59690Y100045D01*
D02*
G37*
G36*
X57150Y102585D02*
X56454Y102296D01*
X56165Y101600D01*
X56454Y100904D01*
X57150Y100615D01*
X57846Y100904D01*
X58135Y101600D01*
X57846Y102296D01*
X57150Y102585D01*
D02*
G37*
G36*
Y107665D02*
X56454Y107376D01*
X56165Y106680D01*
X56454Y105984D01*
X57150Y105695D01*
X57846Y105984D01*
X58135Y106680D01*
X57846Y107376D01*
X57150Y107665D01*
D02*
G37*
G36*
Y94965D02*
X56454Y94676D01*
X56165Y93980D01*
X56454Y93284D01*
X57150Y92995D01*
X57846Y93284D01*
X58135Y93980D01*
X57846Y94676D01*
X57150Y94965D01*
D02*
G37*
G36*
X59690Y97505D02*
X58994Y97216D01*
X58705Y96520D01*
X58994Y95824D01*
X59223Y95729D01*
X59198Y95604D01*
X58694D01*
X58030Y96267D01*
X58135Y96520D01*
X57846Y97216D01*
X57150Y97505D01*
X56454Y97216D01*
X56165Y96520D01*
X56454Y95824D01*
X57150Y95535D01*
X57582Y95714D01*
X58297Y95000D01*
X58547Y94896D01*
X59198D01*
X59223Y94771D01*
X58994Y94676D01*
X58705Y93980D01*
X58994Y93284D01*
X59690Y92995D01*
X60386Y93284D01*
X60528Y93626D01*
X65512D01*
X72013Y87126D01*
X72263Y87022D01*
X80851D01*
X80911Y86910D01*
X80865Y86841D01*
X70505D01*
X67052Y90293D01*
X66802Y90397D01*
X59875D01*
X59850Y90521D01*
X60386Y90744D01*
X60675Y91440D01*
X60386Y92136D01*
X59690Y92425D01*
X58994Y92136D01*
X58705Y91440D01*
X58994Y90744D01*
X59530Y90521D01*
X59505Y90397D01*
X58694D01*
X57993Y91097D01*
X58135Y91440D01*
X57846Y92136D01*
X57150Y92425D01*
X56454Y92136D01*
X56165Y91440D01*
X56454Y90744D01*
X57150Y90455D01*
X57493Y90597D01*
X58297Y89793D01*
X58370Y89762D01*
X58547Y89689D01*
X58918D01*
X58988Y89583D01*
X58705Y88900D01*
X58994Y88204D01*
X59530Y87981D01*
X59505Y87857D01*
X58694D01*
X57993Y88557D01*
X58135Y88900D01*
X57846Y89596D01*
X57150Y89885D01*
X56454Y89596D01*
X56165Y88900D01*
X56454Y88204D01*
X57150Y87915D01*
X57493Y88057D01*
X58297Y87253D01*
X58370Y87222D01*
X58547Y87149D01*
X58918D01*
X58988Y87043D01*
X58705Y86360D01*
X58994Y85664D01*
X59690Y85375D01*
X60386Y85664D01*
X60675Y86360D01*
X60392Y87043D01*
X60462Y87149D01*
X66020D01*
X67695Y85475D01*
X67768Y85444D01*
X67945Y85371D01*
X84455D01*
X84705Y85475D01*
X84705Y85475D01*
X84705Y85475D01*
X85086Y85856D01*
X85190Y86106D01*
X85190Y86106D01*
X85190Y86106D01*
Y88778D01*
X85295Y88822D01*
X85485Y89281D01*
X85295Y89740D01*
X84836Y89930D01*
X84377Y89740D01*
X84187Y89281D01*
X84266Y89089D01*
X84176Y88999D01*
X84074Y89041D01*
X83615Y88851D01*
X83425Y88392D01*
X83615Y87933D01*
X83720Y87889D01*
Y87269D01*
X83292Y86841D01*
X81949D01*
X81879Y86947D01*
X82056Y87376D01*
X81988Y87542D01*
X82078Y87632D01*
X82423Y87489D01*
X82882Y87679D01*
X83072Y88138D01*
X82882Y88597D01*
X82423Y88787D01*
X82016Y88619D01*
X74188D01*
X67306Y95500D01*
X67056Y95604D01*
X60182D01*
X60157Y95729D01*
X60386Y95824D01*
X60675Y96520D01*
X60386Y97216D01*
X59690Y97505D01*
D02*
G37*
G36*
X57150Y100045D02*
X56454Y99756D01*
X56165Y99060D01*
X56454Y98364D01*
X57150Y98075D01*
X57846Y98364D01*
X58135Y99060D01*
X57846Y99756D01*
X57150Y100045D01*
D02*
G37*
G36*
X61595Y67975D02*
X60227Y67408D01*
X59660Y66040D01*
X60227Y64672D01*
X61595Y64105D01*
X62963Y64672D01*
X63530Y66040D01*
X62963Y67408D01*
X61595Y67975D01*
D02*
G37*
G36*
X78068Y69912D02*
X77417Y69643D01*
X77148Y68992D01*
X77417Y68341D01*
X78068Y68072D01*
X78719Y68341D01*
X78988Y68992D01*
X78719Y69643D01*
X78068Y69912D01*
D02*
G37*
G36*
X94705D02*
X94054Y69643D01*
X93785Y68992D01*
X94054Y68341D01*
X94705Y68072D01*
X95356Y68341D01*
X95625Y68992D01*
X95356Y69643D01*
X94705Y69912D01*
D02*
G37*
G36*
X78068Y63912D02*
X77417Y63643D01*
X77148Y62992D01*
X77417Y62341D01*
X78068Y62072D01*
X78719Y62341D01*
X78988Y62992D01*
X78719Y63643D01*
X78068Y63912D01*
D02*
G37*
G36*
X94705D02*
X94054Y63643D01*
X93785Y62992D01*
X94054Y62341D01*
X94705Y62072D01*
X95356Y62341D01*
X95625Y62992D01*
X95356Y63643D01*
X94705Y63912D01*
D02*
G37*
G36*
X92255Y65929D02*
X91451Y65596D01*
X91118Y64792D01*
X91451Y63988D01*
X92255Y63655D01*
X93059Y63988D01*
X93392Y64792D01*
X93059Y65596D01*
X92255Y65929D01*
D02*
G37*
G36*
X97155Y70929D02*
X96351Y70596D01*
X96018Y69792D01*
X96351Y68988D01*
X97155Y68655D01*
X97959Y68988D01*
X98291Y69792D01*
X97959Y70596D01*
X97155Y70929D01*
D02*
G37*
G36*
X59690Y77185D02*
X58994Y76896D01*
X58705Y76200D01*
X58994Y75504D01*
X59690Y75215D01*
X60386Y75504D01*
X60675Y76200D01*
X60386Y76896D01*
X59690Y77185D01*
D02*
G37*
G36*
X57150Y79725D02*
X56454Y79436D01*
X56165Y78740D01*
X56454Y78044D01*
X57150Y77755D01*
X57846Y78044D01*
X58135Y78740D01*
X57846Y79436D01*
X57150Y79725D01*
D02*
G37*
G36*
X59690D02*
X58994Y79436D01*
X58705Y78740D01*
X58994Y78044D01*
X59690Y77755D01*
X60386Y78044D01*
X60675Y78740D01*
X60386Y79436D01*
X59690Y79725D01*
D02*
G37*
G36*
X57150Y74645D02*
X56454Y74356D01*
X56165Y73660D01*
X56454Y72964D01*
X57150Y72675D01*
X57846Y72964D01*
X58135Y73660D01*
X57846Y74356D01*
X57150Y74645D01*
D02*
G37*
G36*
X59690D02*
X58994Y74356D01*
X58705Y73660D01*
X58994Y72964D01*
X59690Y72675D01*
X60386Y72964D01*
X60675Y73660D01*
X60386Y74356D01*
X59690Y74645D01*
D02*
G37*
G36*
X57150Y77185D02*
X56454Y76896D01*
X56165Y76200D01*
X56454Y75504D01*
X57150Y75215D01*
X57846Y75504D01*
X58135Y76200D01*
X57846Y76896D01*
X57150Y77185D01*
D02*
G37*
G36*
X59690Y107665D02*
X58994Y107376D01*
X58705Y106680D01*
X58994Y105984D01*
X59690Y105695D01*
X60386Y105984D01*
X60675Y106680D01*
X60386Y107376D01*
X59690Y107665D01*
D02*
G37*
G36*
Y125445D02*
X58994Y125156D01*
X58705Y124460D01*
X58994Y123764D01*
X59690Y123475D01*
X60386Y123764D01*
X60675Y124460D01*
X60386Y125156D01*
X59690Y125445D01*
D02*
G37*
G36*
X97409Y132767D02*
X96605Y132434D01*
X96272Y131630D01*
X96605Y130826D01*
X97409Y130493D01*
X98213Y130826D01*
X98546Y131630D01*
X98213Y132434D01*
X97409Y132767D01*
D02*
G37*
G36*
X104140Y132276D02*
X103643Y132069D01*
X103436Y131572D01*
X103496Y131428D01*
X99191Y127123D01*
X99087Y126873D01*
Y126687D01*
X98963Y126662D01*
X98929Y126742D01*
X98180Y127491D01*
X98240Y127635D01*
X98033Y128132D01*
X97536Y128339D01*
X97039Y128132D01*
X96832Y127635D01*
X97039Y127138D01*
X97536Y126931D01*
X97680Y126991D01*
X98325Y126345D01*
Y101454D01*
X91297Y94426D01*
X91193Y94175D01*
Y93828D01*
X91088Y93784D01*
X90898Y93325D01*
X91088Y92866D01*
X91547Y92676D01*
X92006Y92866D01*
X92196Y93325D01*
X92006Y93784D01*
X91901Y93828D01*
Y94029D01*
X92247Y94375D01*
X92372Y94350D01*
X92505Y94029D01*
X92964Y93839D01*
X93423Y94029D01*
X93613Y94488D01*
X93570Y94593D01*
X99691Y100715D01*
X99795Y100965D01*
Y126726D01*
X103996Y130928D01*
X104140Y130868D01*
X104637Y131075D01*
X104844Y131572D01*
X104637Y132069D01*
X104140Y132276D01*
D02*
G37*
G36*
X57150Y122905D02*
X56454Y122616D01*
X56165Y121920D01*
X56454Y121224D01*
X57150Y120935D01*
X57846Y121224D01*
X58135Y121920D01*
X57846Y122616D01*
X57150Y122905D01*
D02*
G37*
G36*
X59690D02*
X58994Y122616D01*
X58705Y121920D01*
X58994Y121224D01*
X59690Y120935D01*
X60386Y121224D01*
X60675Y121920D01*
X60386Y122616D01*
X59690Y122905D01*
D02*
G37*
G36*
X57150Y125445D02*
X56454Y125156D01*
X56165Y124460D01*
X56454Y123764D01*
X57150Y123475D01*
X57846Y123764D01*
X58135Y124460D01*
X57846Y125156D01*
X57150Y125445D01*
D02*
G37*
G36*
X99859Y133350D02*
X99208Y133081D01*
X98939Y132430D01*
X99208Y131779D01*
X99859Y131510D01*
X100510Y131779D01*
X100779Y132430D01*
X100510Y133081D01*
X99859Y133350D01*
D02*
G37*
G36*
Y139350D02*
X99208Y139081D01*
X98939Y138430D01*
X99208Y137779D01*
X99859Y137510D01*
X100510Y137779D01*
X100779Y138430D01*
X100510Y139081D01*
X99859Y139350D01*
D02*
G37*
G36*
X67257Y143482D02*
X66453Y143149D01*
X66120Y142345D01*
X66453Y141541D01*
X67257Y141208D01*
X68061Y141541D01*
X68394Y142345D01*
X68061Y143149D01*
X67257Y143482D01*
D02*
G37*
G36*
X64807Y145065D02*
X64156Y144796D01*
X63887Y144145D01*
X64156Y143494D01*
X64807Y143225D01*
X65458Y143494D01*
X65727Y144145D01*
X65458Y144796D01*
X64807Y145065D01*
D02*
G37*
G36*
X102309Y137767D02*
X101505Y137434D01*
X101172Y136630D01*
X101505Y135826D01*
X102309Y135493D01*
X103113Y135826D01*
X103446Y136630D01*
X103113Y137434D01*
X102309Y137767D01*
D02*
G37*
G36*
X62357Y138482D02*
X61553Y138149D01*
X61221Y137345D01*
X61553Y136541D01*
X62357Y136208D01*
X63161Y136541D01*
X63494Y137345D01*
X63161Y138149D01*
X62357Y138482D01*
D02*
G37*
G36*
X64807Y139065D02*
X64156Y138796D01*
X63887Y138145D01*
X64156Y137494D01*
X64807Y137225D01*
X65458Y137494D01*
X65727Y138145D01*
X65458Y138796D01*
X64807Y139065D01*
D02*
G37*
G36*
X71237Y110748D02*
X70778Y110558D01*
X70734Y110453D01*
X69459D01*
X69209Y110349D01*
X68052Y109193D01*
X66162D01*
X66118Y109298D01*
X65659Y109488D01*
X65200Y109298D01*
X65010Y108839D01*
X65200Y108380D01*
X65305Y108336D01*
Y106827D01*
X62972Y104494D01*
X60528D01*
X60386Y104836D01*
X59690Y105125D01*
X58994Y104836D01*
X58705Y104140D01*
X58994Y103444D01*
X59223Y103349D01*
X59198Y103224D01*
X58567D01*
X57993Y103797D01*
X58135Y104140D01*
X57846Y104836D01*
X57150Y105125D01*
X56454Y104836D01*
X56165Y104140D01*
X56454Y103444D01*
X57150Y103155D01*
X57493Y103297D01*
X58170Y102620D01*
X58420Y102516D01*
X59198D01*
X59223Y102392D01*
X58994Y102296D01*
X58705Y101600D01*
X58994Y100904D01*
X59690Y100615D01*
X60386Y100904D01*
X60675Y101600D01*
X60386Y102296D01*
X60157Y102392D01*
X60182Y102516D01*
X64008D01*
X64258Y102620D01*
X64258Y102620D01*
X64258Y102620D01*
X68602Y106963D01*
X68707Y106920D01*
X69166Y107110D01*
X69356Y107569D01*
X69166Y108028D01*
X68707Y108218D01*
X68248Y108028D01*
X68058Y107569D01*
X68101Y107464D01*
X63861Y103224D01*
X60182D01*
X60157Y103349D01*
X60386Y103444D01*
X60528Y103786D01*
X63119D01*
X63369Y103890D01*
X65909Y106430D01*
X66013Y106680D01*
X66013Y106680D01*
X66013Y106680D01*
Y106680D01*
Y108336D01*
X66118Y108380D01*
X66162Y108485D01*
X68199D01*
X68449Y108589D01*
X69606Y109745D01*
X70734D01*
X70778Y109640D01*
X71237Y109450D01*
X71696Y109640D01*
X71886Y110099D01*
X71696Y110558D01*
X71237Y110748D01*
D02*
G37*
G36*
X57150Y112745D02*
X56454Y112456D01*
X56165Y111760D01*
X56454Y111064D01*
X57150Y110775D01*
X57846Y111064D01*
X58135Y111760D01*
X57846Y112456D01*
X57150Y112745D01*
D02*
G37*
G36*
X59690D02*
X58994Y112456D01*
X58705Y111760D01*
X58994Y111064D01*
X59690Y110775D01*
X60386Y111064D01*
X60675Y111760D01*
X60386Y112456D01*
X59690Y112745D01*
D02*
G37*
G36*
X57150Y110205D02*
X56454Y109916D01*
X56165Y109220D01*
X56454Y108524D01*
X57150Y108235D01*
X57846Y108524D01*
X58135Y109220D01*
X57846Y109916D01*
X57150Y110205D01*
D02*
G37*
G36*
X59690D02*
X58994Y109916D01*
X58705Y109220D01*
X58994Y108524D01*
X59690Y108235D01*
X60386Y108524D01*
X60675Y109220D01*
X60386Y109916D01*
X59690Y110205D01*
D02*
G37*
G36*
X79591Y112117D02*
X79132Y111927D01*
X78942Y111468D01*
X79132Y111009D01*
X79275Y110949D01*
Y108732D01*
X78720Y108177D01*
X78227D01*
X78183Y108282D01*
X77724Y108472D01*
X77265Y108282D01*
X77075Y107823D01*
X77265Y107364D01*
X77724Y107174D01*
X78183Y107364D01*
X78227Y107469D01*
X78867D01*
X79117Y107573D01*
X79879Y108335D01*
X79983Y108585D01*
X79983Y108585D01*
X79983Y108585D01*
Y110981D01*
X80050Y111009D01*
X80240Y111468D01*
X80050Y111927D01*
X79591Y112117D01*
D02*
G37*
G36*
X89154Y112464D02*
X88657Y112257D01*
X88450Y111760D01*
X88510Y111616D01*
X86300Y109407D01*
X86197Y109157D01*
Y93428D01*
X85449Y92681D01*
X85344Y92724D01*
X84885Y92534D01*
X84695Y92075D01*
X84885Y91616D01*
X85344Y91426D01*
X85803Y91616D01*
X85993Y92075D01*
X85950Y92180D01*
X86801Y93031D01*
X86831Y93105D01*
X86904Y93282D01*
Y109010D01*
X89010Y111116D01*
X89154Y111056D01*
X89651Y111263D01*
X89858Y111760D01*
X89651Y112257D01*
X89154Y112464D01*
D02*
G37*
G36*
X59690Y117825D02*
X58994Y117536D01*
X58705Y116840D01*
X58994Y116144D01*
X59690Y115855D01*
X60386Y116144D01*
X60675Y116840D01*
X60386Y117536D01*
X59690Y117825D01*
D02*
G37*
G36*
X57150Y120365D02*
X56454Y120076D01*
X56165Y119380D01*
X56454Y118684D01*
X57150Y118395D01*
X57846Y118684D01*
X58135Y119380D01*
X57846Y120076D01*
X57150Y120365D01*
D02*
G37*
G36*
X84201Y122370D02*
X83704Y122163D01*
X83698Y122149D01*
X81626Y120078D01*
X60384D01*
X59690Y120365D01*
X58994Y120076D01*
X58705Y119380D01*
X58994Y118684D01*
X59690Y118395D01*
X60384Y118682D01*
X81915D01*
X82408Y118887D01*
X84684Y121163D01*
X84698Y121169D01*
X84905Y121666D01*
X84698Y122163D01*
X84201Y122370D01*
D02*
G37*
G36*
X57150Y115285D02*
X56454Y114996D01*
X56165Y114300D01*
X56454Y113604D01*
X57150Y113315D01*
X57846Y113604D01*
X58135Y114300D01*
X57846Y114996D01*
X57150Y115285D01*
D02*
G37*
G36*
X59690D02*
X58994Y114996D01*
X58705Y114300D01*
X58994Y113604D01*
X59690Y113315D01*
X60386Y113604D01*
X60675Y114300D01*
X60386Y114996D01*
X59690Y115285D01*
D02*
G37*
G36*
X57150Y117825D02*
X56454Y117536D01*
X56165Y116840D01*
X56454Y116144D01*
X57150Y115855D01*
X57846Y116144D01*
X58135Y116840D01*
X57846Y117536D01*
X57150Y117825D01*
D02*
G37*
%LPD*%
D29*
X65538Y96393D02*
X65792Y96647D01*
X65278Y96393D02*
X65538D01*
X70104Y96647D02*
X75692Y91059D01*
X65792Y96647D02*
X70104D01*
X63500Y83820D02*
X63754Y84074D01*
X86487D02*
X86995Y83566D01*
X63754Y84074D02*
X86487D01*
X68580Y65659D02*
X70485Y63754D01*
X68580Y65659D02*
Y66675D01*
X86550Y109157D02*
X89154Y111760D01*
X86550Y93282D02*
Y109157D01*
X85344Y92075D02*
X86550Y93282D01*
X102235Y123825D02*
X102743Y123317D01*
Y83312D02*
Y123317D01*
X101346Y83312D02*
Y125476D01*
X99441Y100965D02*
Y126873D01*
X104140Y131572D01*
X100565Y82531D02*
X101346Y83312D01*
X92964Y94488D02*
X99441Y100965D01*
X97536Y127635D02*
X98679Y126492D01*
Y101308D02*
Y126492D01*
X91547Y94175D02*
X98679Y101308D01*
X91547Y93325D02*
Y94175D01*
X100838Y81407D02*
X102743Y83312D01*
X87884Y81407D02*
X100838D01*
X89046Y82531D02*
X100565D01*
X88900Y82677D02*
X89046Y82531D01*
X84455Y85725D02*
X84836Y86106D01*
X67945Y85725D02*
X84455D01*
X66167Y87503D02*
X67945Y85725D01*
X83439Y86487D02*
X84074Y87122D01*
X70358Y86487D02*
X83439D01*
X66802Y90043D02*
X70358Y86487D01*
X72263Y87376D02*
X81407D01*
X65659Y93980D02*
X72263Y87376D01*
X62992Y84836D02*
X85344D01*
X62357Y85471D02*
X62992Y84836D01*
X83693Y90932D02*
X88265D01*
X82804Y90043D02*
X83693Y90932D01*
X74676Y90043D02*
X82804D01*
X70231Y94488D02*
X74676Y90043D01*
X58547D02*
X66802D01*
X59690Y93980D02*
X65659D01*
X74041Y88265D02*
X82423D01*
X67056Y95250D02*
X74041Y88265D01*
X58547Y95250D02*
X67056D01*
X65659Y106680D02*
Y108839D01*
X63119Y104140D02*
X65659Y106680D01*
X59690Y104140D02*
X63119D01*
X64008Y102870D02*
X68707Y107569D01*
X58420Y102870D02*
X64008D01*
X57150Y104140D02*
X58420Y102870D01*
X84074Y87122D02*
Y88392D01*
X84836Y86106D02*
Y89281D01*
X58547Y87503D02*
X66167D01*
X57150Y88900D02*
X58547Y87503D01*
X57150Y91440D02*
X58547Y90043D01*
X57277Y96520D02*
X58547Y95250D01*
X57150Y96520D02*
X57277D01*
X79629Y108585D02*
Y111506D01*
X78867Y107823D02*
X79629Y108585D01*
X77724Y107823D02*
X78867D01*
X80518Y67564D02*
Y69792D01*
X77746Y64792D02*
X80518Y67564D01*
X75618Y64792D02*
X77746D01*
X69459Y110099D02*
X71237D01*
X68199Y108839D02*
X69459Y110099D01*
X65659Y108839D02*
X68199D01*
X89662Y83566D02*
X91440D01*
D31*
X59690Y119380D02*
X81915D01*
X84201Y121666D01*
D32*
X105410Y127000D02*
X107950D01*
D33*
X67183Y67945D02*
X73914D01*
X65405Y69723D02*
X67183Y67945D01*
X65405Y69723D02*
Y72517D01*
D34*
X99314Y83312D02*
X100330Y84328D01*
X94361Y83312D02*
X99314D01*
D36*
X80518Y62992D02*
D03*
X62357Y144145D02*
D03*
X97155Y62992D02*
D03*
X97409Y138430D02*
D03*
D37*
X75618Y64792D02*
D03*
X80518Y69792D02*
D03*
X67257Y142345D02*
D03*
X62357Y137345D02*
D03*
X92255Y64792D02*
D03*
X97155Y69792D02*
D03*
X102309Y136630D02*
D03*
X97409Y131630D02*
D03*
D38*
X78068Y68992D02*
D03*
Y62992D02*
D03*
X64807Y138145D02*
D03*
Y144145D02*
D03*
X94705Y68992D02*
D03*
Y62992D02*
D03*
X99859Y132430D02*
D03*
Y138430D02*
D03*
D39*
X59690Y71120D02*
D03*
Y73660D02*
D03*
Y76200D02*
D03*
Y78740D02*
D03*
Y81280D02*
D03*
Y83820D02*
D03*
Y86360D02*
D03*
Y88900D02*
D03*
Y91440D02*
D03*
Y93980D02*
D03*
Y96520D02*
D03*
Y99060D02*
D03*
Y101600D02*
D03*
Y104140D02*
D03*
Y106680D02*
D03*
Y109220D02*
D03*
Y111760D02*
D03*
Y114300D02*
D03*
Y116840D02*
D03*
Y119380D02*
D03*
Y121920D02*
D03*
Y124460D02*
D03*
Y127000D02*
D03*
X57150Y71120D02*
D03*
Y73660D02*
D03*
Y76200D02*
D03*
Y78740D02*
D03*
Y81280D02*
D03*
Y83820D02*
D03*
Y86360D02*
D03*
Y88900D02*
D03*
Y91440D02*
D03*
Y93980D02*
D03*
Y96520D02*
D03*
Y99060D02*
D03*
Y101600D02*
D03*
Y104140D02*
D03*
Y106680D02*
D03*
Y109220D02*
D03*
Y111760D02*
D03*
Y114300D02*
D03*
Y116840D02*
D03*
Y119380D02*
D03*
Y121920D02*
D03*
Y124460D02*
D03*
X107950Y71120D02*
D03*
Y73660D02*
D03*
Y76200D02*
D03*
Y78740D02*
D03*
Y81280D02*
D03*
Y83820D02*
D03*
Y86360D02*
D03*
Y88900D02*
D03*
Y91440D02*
D03*
Y93980D02*
D03*
Y96520D02*
D03*
Y99060D02*
D03*
Y101600D02*
D03*
Y104140D02*
D03*
Y106680D02*
D03*
Y109220D02*
D03*
Y111760D02*
D03*
Y114300D02*
D03*
Y116840D02*
D03*
Y119380D02*
D03*
Y121920D02*
D03*
Y124460D02*
D03*
Y127000D02*
D03*
X105410Y71120D02*
D03*
Y73660D02*
D03*
Y76200D02*
D03*
Y78740D02*
D03*
Y81280D02*
D03*
Y83820D02*
D03*
Y86360D02*
D03*
Y88900D02*
D03*
Y91440D02*
D03*
Y93980D02*
D03*
Y96520D02*
D03*
Y99060D02*
D03*
Y101600D02*
D03*
Y104140D02*
D03*
Y106680D02*
D03*
Y109220D02*
D03*
Y111760D02*
D03*
Y114300D02*
D03*
Y116840D02*
D03*
Y119380D02*
D03*
Y121920D02*
D03*
Y124460D02*
D03*
D40*
X57150Y127000D02*
D03*
X105410D02*
D03*
D41*
X103505Y66040D02*
D03*
X61595D02*
D03*
X58420Y132080D02*
D03*
D42*
X65278Y96393D02*
D03*
X75692Y91059D02*
D03*
X63500Y83820D02*
D03*
X70485Y63754D02*
D03*
X68580Y66675D02*
D03*
X81407Y83312D02*
D03*
X102235Y123825D02*
D03*
X101346Y125476D02*
D03*
X92964Y94488D02*
D03*
X96647Y88900D02*
D03*
X96520Y84582D02*
D03*
X66294Y74168D02*
D03*
X100330Y84328D02*
D03*
X94361Y83312D02*
D03*
X73914Y67945D02*
D03*
X81407Y87376D02*
D03*
X88265Y90932D02*
D03*
X85344Y92075D02*
D03*
X82296Y108585D02*
D03*
X83439Y92329D02*
D03*
X87884Y81407D02*
D03*
X88900Y82677D02*
D03*
X91547Y93325D02*
D03*
X85344Y93345D02*
D03*
X62357Y85471D02*
D03*
X86995Y83566D02*
D03*
X85344Y84836D02*
D03*
X72644Y102235D02*
D03*
X70358Y94488D02*
D03*
X68707Y107569D02*
D03*
X84074Y88392D02*
D03*
X82423Y88138D02*
D03*
X79591Y111468D02*
D03*
X77724Y107823D02*
D03*
X84836Y89281D02*
D03*
X65659Y108839D02*
D03*
X71237Y110099D02*
D03*
X92960Y87372D02*
D03*
X92710Y84836D02*
D03*
X91440Y83566D02*
D03*
X89662D02*
D03*
X90297Y122009D02*
D03*
X82804Y117883D02*
D03*
X90805Y90805D02*
D03*
X65405Y72517D02*
D03*
X74041Y74168D02*
D03*
X71435Y72070D02*
D03*
X68453Y69850D02*
D03*
X84609Y111633D02*
D03*
X80792Y100419D02*
D03*
X99314Y67056D02*
D03*
X89065Y78105D02*
D03*
X82296Y103251D02*
D03*
X77851Y109093D02*
D03*
X76073Y92329D02*
D03*
X87954Y88322D02*
D03*
X89154D02*
D03*
X90354D02*
D03*
X87954Y87122D02*
D03*
X89154D02*
D03*
X90354D02*
D03*
X87954Y85922D02*
D03*
X89154D02*
D03*
X90354D02*
D03*
D43*
X89154Y111760D02*
D03*
X85090Y95885D02*
D03*
X89662D02*
D03*
X84201Y121666D02*
D03*
X97536Y127635D02*
D03*
X104140Y131572D02*
D03*
M02*
