%FSLAX43Y43*%
%MOMM*%
G71*
G01*
G75*
G04 Layer_Color=8421504*
%ADD10C,1.000*%
%ADD11R,1.000X0.900*%
%ADD12R,0.900X1.000*%
%ADD13R,1.300X1.400*%
G04:AMPARAMS|DCode=14|XSize=1mm|YSize=1.5mm|CornerRadius=0.25mm|HoleSize=0mm|Usage=FLASHONLY|Rotation=90.000|XOffset=0mm|YOffset=0mm|HoleType=Round|Shape=RoundedRectangle|*
%AMROUNDEDRECTD14*
21,1,1.000,1.000,0,0,90.0*
21,1,0.500,1.500,0,0,90.0*
1,1,0.500,0.500,0.250*
1,1,0.500,0.500,-0.250*
1,1,0.500,-0.500,-0.250*
1,1,0.500,-0.500,0.250*
%
%ADD14ROUNDEDRECTD14*%
%ADD15R,0.800X0.800*%
G04:AMPARAMS|DCode=16|XSize=1.45mm|YSize=1.25mm|CornerRadius=0.313mm|HoleSize=0mm|Usage=FLASHONLY|Rotation=90.000|XOffset=0mm|YOffset=0mm|HoleType=Round|Shape=RoundedRectangle|*
%AMROUNDEDRECTD16*
21,1,1.450,0.625,0,0,90.0*
21,1,0.825,1.250,0,0,90.0*
1,1,0.625,0.313,0.412*
1,1,0.625,0.313,-0.412*
1,1,0.625,-0.313,-0.412*
1,1,0.625,-0.313,0.412*
%
%ADD16ROUNDEDRECTD16*%
%ADD17R,1.500X0.600*%
%ADD18R,0.813X0.914*%
%ADD19R,0.650X0.400*%
%ADD20R,0.800X0.800*%
%ADD21R,1.400X1.300*%
%ADD22R,3.300X2.400*%
%ADD23R,0.950X2.400*%
%ADD24O,0.800X0.250*%
%ADD25O,0.250X0.800*%
%ADD26R,3.450X3.450*%
%ADD27R,1.700X1.250*%
%ADD28R,2.000X1.800*%
%ADD29C,0.254*%
%ADD30C,0.500*%
%ADD31C,0.889*%
%ADD32C,1.270*%
%ADD33C,0.635*%
%ADD34C,0.300*%
%ADD35C,0.381*%
%ADD36R,1.700X1.700*%
%ADD37C,1.700*%
%ADD38C,1.300*%
%ADD39C,1.420*%
%ADD40R,1.420X1.420*%
%ADD41C,3.175*%
%ADD42C,0.800*%
%ADD43C,0.900*%
%ADD44C,0.200*%
%ADD45C,0.250*%
%ADD46C,0.600*%
%ADD47C,0.400*%
%ADD48C,0.100*%
%ADD49C,0.127*%
%ADD50C,3.000*%
D11*
X68707Y110401D02*
D03*
Y108801D02*
D03*
X63500Y71539D02*
D03*
Y69939D02*
D03*
X65405Y71539D02*
D03*
Y69939D02*
D03*
X66802Y110401D02*
D03*
Y108801D02*
D03*
X68580Y103848D02*
D03*
Y105448D02*
D03*
D12*
X81191Y106807D02*
D03*
X79591D02*
D03*
X78702Y90043D02*
D03*
X80302D02*
D03*
X71463Y74168D02*
D03*
X73063D02*
D03*
X81191Y105029D02*
D03*
X79591D02*
D03*
X81191Y110363D02*
D03*
X79591D02*
D03*
Y103251D02*
D03*
X81191D02*
D03*
X79591Y108585D02*
D03*
X81191D02*
D03*
X68999Y74168D02*
D03*
X67399D02*
D03*
D13*
X85714Y111633D02*
D03*
X87514D02*
D03*
X96531Y91948D02*
D03*
X94731D02*
D03*
D14*
X72136Y64897D02*
D03*
Y62397D02*
D03*
X66548Y64897D02*
D03*
Y62397D02*
D03*
D15*
X90170Y62738D02*
D03*
Y63988D02*
D03*
X99314Y67945D02*
D03*
Y69195D02*
D03*
X95250Y135255D02*
D03*
Y134005D02*
D03*
X104140Y139192D02*
D03*
Y137942D02*
D03*
X86360Y92075D02*
D03*
Y93325D02*
D03*
X87630Y92075D02*
D03*
Y93325D02*
D03*
X104140Y133731D02*
D03*
Y134981D02*
D03*
X95250Y129032D02*
D03*
Y130282D02*
D03*
X89027Y92075D02*
D03*
Y93325D02*
D03*
X90424Y92075D02*
D03*
Y93325D02*
D03*
X90170Y78105D02*
D03*
Y79355D02*
D03*
Y80772D02*
D03*
Y82022D02*
D03*
X83312Y70231D02*
D03*
Y71481D02*
D03*
X66421Y132969D02*
D03*
Y131719D02*
D03*
X91948Y80772D02*
D03*
Y82022D02*
D03*
X63881Y132969D02*
D03*
Y131719D02*
D03*
D16*
X86501Y97663D02*
D03*
X88251D02*
D03*
X86501Y95885D02*
D03*
X88251D02*
D03*
D17*
X76337Y105283D02*
D03*
Y106553D02*
D03*
Y107823D02*
D03*
Y109093D02*
D03*
X71237Y105283D02*
D03*
Y106553D02*
D03*
Y107823D02*
D03*
Y109093D02*
D03*
D18*
X71095Y103251D02*
D03*
X72669D02*
D03*
D19*
X71435Y71262D02*
D03*
Y70612D02*
D03*
Y69962D02*
D03*
X69535D02*
D03*
Y70612D02*
D03*
Y71262D02*
D03*
D20*
X94361Y84582D02*
D03*
X95611D02*
D03*
X94361Y85852D02*
D03*
X95611D02*
D03*
X94381Y88900D02*
D03*
X95631D02*
D03*
X94381Y90170D02*
D03*
X95631D02*
D03*
X83566Y85471D02*
D03*
X82316D02*
D03*
X83566Y84201D02*
D03*
X82316D02*
D03*
X82042Y99314D02*
D03*
X80792D02*
D03*
D21*
X82804Y118988D02*
D03*
Y120788D02*
D03*
D22*
X88011Y114575D02*
D03*
D23*
X85711Y120375D02*
D03*
X88011D02*
D03*
X90311D02*
D03*
D24*
X86654Y88872D02*
D03*
Y88372D02*
D03*
Y87872D02*
D03*
Y87372D02*
D03*
Y86872D02*
D03*
Y86372D02*
D03*
Y85872D02*
D03*
Y85372D02*
D03*
X91654D02*
D03*
Y85872D02*
D03*
Y86372D02*
D03*
Y86872D02*
D03*
Y87372D02*
D03*
Y87872D02*
D03*
Y88372D02*
D03*
Y88872D02*
D03*
D25*
X87404Y84622D02*
D03*
X87904D02*
D03*
X88404D02*
D03*
X88904D02*
D03*
X89404D02*
D03*
X89904D02*
D03*
X90404D02*
D03*
X90904D02*
D03*
Y89622D02*
D03*
X90404D02*
D03*
X89904D02*
D03*
X89404D02*
D03*
X88904D02*
D03*
X88404D02*
D03*
X87904D02*
D03*
X87404D02*
D03*
D26*
X89154Y87122D02*
D03*
D27*
X92583Y73963D02*
D03*
Y76913D02*
D03*
X96774Y73963D02*
D03*
Y76913D02*
D03*
D28*
X77597Y97409D02*
D03*
Y92329D02*
D03*
X81997D02*
D03*
Y97409D02*
D03*
D50*
X101600Y74676D02*
D03*
X63373D02*
D03*
X72390Y132461D02*
D03*
M02*
