%FSLAX43Y43*%
%MOMM*%
G71*
G01*
G75*
G04 Layer_Color=16711935*
%ADD10C,1.000*%
%ADD11R,1.000X0.900*%
%ADD12R,0.900X1.000*%
%ADD13R,1.300X1.400*%
G04:AMPARAMS|DCode=14|XSize=1mm|YSize=1.5mm|CornerRadius=0.25mm|HoleSize=0mm|Usage=FLASHONLY|Rotation=90.000|XOffset=0mm|YOffset=0mm|HoleType=Round|Shape=RoundedRectangle|*
%AMROUNDEDRECTD14*
21,1,1.000,1.000,0,0,90.0*
21,1,0.500,1.500,0,0,90.0*
1,1,0.500,0.500,0.250*
1,1,0.500,0.500,-0.250*
1,1,0.500,-0.500,-0.250*
1,1,0.500,-0.500,0.250*
%
%ADD14ROUNDEDRECTD14*%
%ADD15R,0.800X0.800*%
G04:AMPARAMS|DCode=16|XSize=1.45mm|YSize=1.25mm|CornerRadius=0.313mm|HoleSize=0mm|Usage=FLASHONLY|Rotation=90.000|XOffset=0mm|YOffset=0mm|HoleType=Round|Shape=RoundedRectangle|*
%AMROUNDEDRECTD16*
21,1,1.450,0.625,0,0,90.0*
21,1,0.825,1.250,0,0,90.0*
1,1,0.625,0.313,0.412*
1,1,0.625,0.313,-0.412*
1,1,0.625,-0.313,-0.412*
1,1,0.625,-0.313,0.412*
%
%ADD16ROUNDEDRECTD16*%
%ADD17R,1.500X0.600*%
%ADD18R,0.813X0.914*%
%ADD19R,0.650X0.400*%
%ADD20R,0.800X0.800*%
%ADD21R,1.400X1.300*%
%ADD22R,3.300X2.400*%
%ADD23R,0.950X2.400*%
%ADD24O,0.800X0.250*%
%ADD25O,0.250X0.800*%
%ADD26R,3.450X3.450*%
%ADD27R,1.700X1.250*%
%ADD28R,2.000X1.800*%
%ADD29C,0.254*%
%ADD30C,0.500*%
%ADD31C,0.889*%
%ADD32C,1.270*%
%ADD33C,0.635*%
%ADD34C,0.300*%
%ADD35C,0.381*%
%ADD36R,1.700X1.700*%
%ADD37C,1.700*%
%ADD38C,1.300*%
%ADD39C,1.420*%
%ADD40R,1.420X1.420*%
%ADD41C,3.175*%
%ADD42C,0.800*%
%ADD43C,0.900*%
%ADD44C,0.200*%
%ADD45C,0.250*%
%ADD46C,0.600*%
%ADD47C,0.400*%
%ADD48C,0.100*%
%ADD49C,0.127*%
%ADD50C,3.000*%
%ADD51C,1.100*%
%ADD52R,1.100X1.000*%
%ADD53R,1.000X1.100*%
%ADD54R,1.400X1.500*%
G04:AMPARAMS|DCode=55|XSize=1.1mm|YSize=1.6mm|CornerRadius=0.3mm|HoleSize=0mm|Usage=FLASHONLY|Rotation=90.000|XOffset=0mm|YOffset=0mm|HoleType=Round|Shape=RoundedRectangle|*
%AMROUNDEDRECTD55*
21,1,1.100,1.000,0,0,90.0*
21,1,0.500,1.600,0,0,90.0*
1,1,0.600,0.500,0.250*
1,1,0.600,0.500,-0.250*
1,1,0.600,-0.500,-0.250*
1,1,0.600,-0.500,0.250*
%
%ADD55ROUNDEDRECTD55*%
%ADD56R,0.900X0.900*%
G04:AMPARAMS|DCode=57|XSize=1.55mm|YSize=1.35mm|CornerRadius=0.362mm|HoleSize=0mm|Usage=FLASHONLY|Rotation=90.000|XOffset=0mm|YOffset=0mm|HoleType=Round|Shape=RoundedRectangle|*
%AMROUNDEDRECTD57*
21,1,1.550,0.625,0,0,90.0*
21,1,0.825,1.350,0,0,90.0*
1,1,0.725,0.313,0.412*
1,1,0.725,0.313,-0.412*
1,1,0.725,-0.313,-0.412*
1,1,0.725,-0.313,0.412*
%
%ADD57ROUNDEDRECTD57*%
%ADD58R,1.600X0.700*%
%ADD59R,0.913X1.014*%
%ADD60R,0.750X0.500*%
%ADD61R,0.900X0.900*%
%ADD62R,1.500X1.400*%
%ADD63R,3.400X2.500*%
%ADD64R,1.050X2.500*%
%ADD65O,0.900X0.350*%
%ADD66O,0.350X0.900*%
%ADD67R,3.550X3.550*%
%ADD68R,1.800X1.350*%
%ADD69R,2.100X1.900*%
%ADD70R,1.800X1.800*%
%ADD71C,1.800*%
%ADD72C,1.400*%
%ADD73C,1.520*%
%ADD74R,1.520X1.520*%
%ADD75C,3.275*%
D10*
X89154Y111760D02*
D03*
X85090Y95885D02*
D03*
X89662D02*
D03*
X84201Y121666D02*
D03*
X97536Y127635D02*
D03*
X104140Y131572D02*
D03*
D43*
X65278Y96393D02*
D03*
X75692Y91059D02*
D03*
X63500Y83820D02*
D03*
X70485Y63754D02*
D03*
X68580Y66675D02*
D03*
X81407Y83312D02*
D03*
X102235Y123825D02*
D03*
X101346Y125476D02*
D03*
X92964Y94488D02*
D03*
X96647Y88900D02*
D03*
X96520Y84582D02*
D03*
X66294Y74168D02*
D03*
X100330Y84328D02*
D03*
X94361Y83312D02*
D03*
X73914Y67945D02*
D03*
X81407Y87376D02*
D03*
X88265Y90932D02*
D03*
X85344Y92075D02*
D03*
X82296Y108585D02*
D03*
X83439Y92329D02*
D03*
X87884Y81407D02*
D03*
X88900Y82677D02*
D03*
X91547Y93325D02*
D03*
X85344Y93345D02*
D03*
X62357Y85471D02*
D03*
X86995Y83566D02*
D03*
X85344Y84836D02*
D03*
X72644Y102235D02*
D03*
X70358Y94488D02*
D03*
X68707Y107569D02*
D03*
X84074Y88392D02*
D03*
X82423Y88138D02*
D03*
X79591Y111468D02*
D03*
X77724Y107823D02*
D03*
X84836Y89281D02*
D03*
X65659Y108839D02*
D03*
X71237Y110099D02*
D03*
X92960Y87372D02*
D03*
X92710Y84836D02*
D03*
X91440Y83566D02*
D03*
X89662D02*
D03*
X90297Y122009D02*
D03*
X82804Y117883D02*
D03*
X90805Y90805D02*
D03*
X65405Y72517D02*
D03*
X74041Y74168D02*
D03*
X71435Y72070D02*
D03*
X68453Y69850D02*
D03*
X84609Y111633D02*
D03*
X80792Y100419D02*
D03*
X99314Y67056D02*
D03*
X89065Y78105D02*
D03*
X82296Y103251D02*
D03*
X77851Y109093D02*
D03*
X76073Y92329D02*
D03*
D47*
X88104Y88322D02*
G03*
X88104Y88322I-150J0D01*
G01*
Y87122D02*
G03*
X88104Y87122I-150J0D01*
G01*
Y85922D02*
G03*
X88104Y85922I-150J0D01*
G01*
X89304D02*
G03*
X89304Y85922I-150J0D01*
G01*
Y87122D02*
G03*
X89304Y87122I-150J0D01*
G01*
Y88322D02*
G03*
X89304Y88322I-150J0D01*
G01*
X90504D02*
G03*
X90504Y88322I-150J0D01*
G01*
Y87122D02*
G03*
X90504Y87122I-150J0D01*
G01*
Y85922D02*
G03*
X90504Y85922I-150J0D01*
G01*
D70*
X80518Y62992D02*
D03*
X62357Y144145D02*
D03*
X97155Y62992D02*
D03*
X97409Y138430D02*
D03*
D71*
X75618Y64792D02*
D03*
X80518Y69792D02*
D03*
X67257Y142345D02*
D03*
X62357Y137345D02*
D03*
X92255Y64792D02*
D03*
X97155Y69792D02*
D03*
X102309Y136630D02*
D03*
X97409Y131630D02*
D03*
D72*
X78068Y68992D02*
D03*
Y62992D02*
D03*
X64807Y138145D02*
D03*
Y144145D02*
D03*
X94705Y68992D02*
D03*
Y62992D02*
D03*
X99859Y132430D02*
D03*
Y138430D02*
D03*
D73*
X59690Y71120D02*
D03*
Y73660D02*
D03*
Y76200D02*
D03*
Y78740D02*
D03*
Y81280D02*
D03*
Y83820D02*
D03*
Y86360D02*
D03*
Y88900D02*
D03*
Y91440D02*
D03*
Y93980D02*
D03*
Y96520D02*
D03*
Y99060D02*
D03*
Y101600D02*
D03*
Y104140D02*
D03*
Y106680D02*
D03*
Y109220D02*
D03*
Y111760D02*
D03*
Y114300D02*
D03*
Y116840D02*
D03*
Y119380D02*
D03*
Y121920D02*
D03*
Y124460D02*
D03*
Y127000D02*
D03*
X57150Y71120D02*
D03*
Y73660D02*
D03*
Y76200D02*
D03*
Y78740D02*
D03*
Y81280D02*
D03*
Y83820D02*
D03*
Y86360D02*
D03*
Y88900D02*
D03*
Y91440D02*
D03*
Y93980D02*
D03*
Y96520D02*
D03*
Y99060D02*
D03*
Y101600D02*
D03*
Y104140D02*
D03*
Y106680D02*
D03*
Y109220D02*
D03*
Y111760D02*
D03*
Y114300D02*
D03*
Y116840D02*
D03*
Y119380D02*
D03*
Y121920D02*
D03*
Y124460D02*
D03*
X107950Y71120D02*
D03*
Y73660D02*
D03*
Y76200D02*
D03*
Y78740D02*
D03*
Y81280D02*
D03*
Y83820D02*
D03*
Y86360D02*
D03*
Y88900D02*
D03*
Y91440D02*
D03*
Y93980D02*
D03*
Y96520D02*
D03*
Y99060D02*
D03*
Y101600D02*
D03*
Y104140D02*
D03*
Y106680D02*
D03*
Y109220D02*
D03*
Y111760D02*
D03*
Y114300D02*
D03*
Y116840D02*
D03*
Y119380D02*
D03*
Y121920D02*
D03*
Y124460D02*
D03*
Y127000D02*
D03*
X105410Y71120D02*
D03*
Y73660D02*
D03*
Y76200D02*
D03*
Y78740D02*
D03*
Y81280D02*
D03*
Y83820D02*
D03*
Y86360D02*
D03*
Y88900D02*
D03*
Y91440D02*
D03*
Y93980D02*
D03*
Y96520D02*
D03*
Y99060D02*
D03*
Y101600D02*
D03*
Y104140D02*
D03*
Y106680D02*
D03*
Y109220D02*
D03*
Y111760D02*
D03*
Y114300D02*
D03*
Y116840D02*
D03*
Y119380D02*
D03*
Y121920D02*
D03*
Y124460D02*
D03*
D74*
X57150Y127000D02*
D03*
X105410D02*
D03*
D75*
X103505Y66040D02*
D03*
X61595D02*
D03*
X58420Y132080D02*
D03*
M02*
